<svg width="620" height="707" viewBox="0 0 620 707" fill="none" xmlns="http://www.w3.org/2000/svg">
<rect y="250" width="620" height="457" fill="#7996D0" fill-opacity="0.82"/>
<g clip-path="url(#clip0_442_167)">
<path d="M41.7245 316.313C38.7804 316.313 35.8303 316.434 32.9493 316.679L32.53 316.714C13.4202 318.404 -0.557769 328.204 0.017105 339.512L0.128241 341.557C0.20153 342.849 0.279617 344.239 0.343891 345.781C0.378702 346.541 1.41617 347.125 2.7071 347.125H472.763C505.904 346.923 538.925 346.67 570.903 346.372C576.901 346.384 582.894 346.074 588.858 345.441C597.745 344.39 603.913 342.305 607.717 339.068H607.718C612.448 335.053 612.597 329.998 612.311 324.287C611.729 312.755 611.151 300.64 610.574 288.562C610.065 277.917 609.558 267.301 609.051 257.137C608.737 251.105 608.04 245.781 602.669 241.712C596.847 237.311 586.228 235.08 571.109 235.08C570.926 235.08 570.745 235.08 570.56 235.081C523.175 235.25 476.225 251.543 453.731 275.624C451.141 278.397 448.727 281.366 446.392 284.238C442.943 288.479 439.377 292.865 435.122 296.787C432.818 298.939 430.326 300.881 427.677 302.59C427.494 302.717 427.285 302.852 427.064 302.98C426.558 303.31 426.03 303.627 425.514 303.911C422.496 305.653 419.317 307.099 416.019 308.227L415.687 308.339C415.436 308.429 415.165 308.518 414.893 308.6C412.989 309.211 411.011 309.74 409.029 310.167C400.454 312.057 390.704 312.51 380.051 311.512C370.267 310.572 360.609 308.604 351.237 305.641C341.372 302.523 332.138 298.636 323.208 294.877C319.285 293.225 315.228 291.517 311.176 289.899C310.414 289.595 309.665 289.297 308.905 289C303.956 287.071 299.469 285.478 295.189 284.13C284.583 280.777 273.605 278.744 262.503 278.076C250.718 277.431 240.333 278.648 231.643 281.684C229.247 282.519 226.914 283.524 224.663 284.692C214.37 290.037 208.025 297.925 201.889 305.554C194.257 315.043 186.364 324.856 170.779 329.943C152.795 335.818 126.546 333.377 107.974 329.133C102.135 327.798 96.3033 326.262 90.6632 324.777C88.3853 324.177 86.1058 323.581 83.8247 322.989C79.3422 321.832 75.6737 320.945 72.2797 320.197L71.2062 319.958C70.6091 319.828 70.0114 319.698 69.4029 319.575C65.3715 318.729 61.6176 318.062 57.9209 317.539L57.0462 317.411C55.2927 317.18 53.6534 316.988 52.0447 316.826L51.4026 316.762C48.2518 316.463 44.9912 316.313 41.7245 316.313Z" fill="#F2F2F2"/>
<path d="M527.789 328.933C541.016 317.014 560.689 311.021 577.191 317.705C560.264 327.103 547.206 342.186 540.328 360.285C537.701 367.274 535.507 375.322 529.045 379.064C525.024 381.393 520.022 381.506 515.514 380.382C511.006 379.258 506.873 377.005 502.798 374.774L501.638 374.748C506.844 357.722 514.563 340.852 527.789 328.933Z" fill="#E6E6E6"/>
<path d="M577.099 318.067C562.484 319.955 548.835 326.401 538.092 336.489C535.74 338.619 533.739 341.107 532.163 343.861C530.714 346.593 530.022 349.663 530.161 352.752C530.232 355.636 530.639 358.577 530.009 361.427C529.664 362.881 529.016 364.246 528.107 365.432C527.198 366.619 526.049 367.599 524.734 368.31C521.504 370.166 517.8 370.752 514.158 371.198C510.115 371.694 505.906 372.144 502.406 374.413C501.982 374.687 501.58 374.013 502.004 373.739C508.094 369.793 515.8 371.229 522.349 368.595C525.404 367.366 528.108 365.209 529.065 361.947C529.902 359.095 529.485 356.062 529.388 353.143C529.208 350.131 529.769 347.121 531.021 344.376C532.452 341.551 534.354 338.99 536.644 336.804C541.723 331.798 547.556 327.621 553.932 324.428C561.188 320.743 569.021 318.326 577.092 317.282C577.591 317.217 577.595 318.003 577.099 318.067H577.099Z" fill="white"/>
<path d="M541.359 333.037C539.912 331.005 539.233 328.524 539.446 326.038C539.658 323.552 540.748 321.222 542.519 319.465C542.879 319.11 543.446 319.653 543.086 320.008C541.434 321.641 540.419 323.811 540.226 326.127C540.033 328.442 540.674 330.75 542.033 332.635C542.328 333.045 541.653 333.444 541.359 333.037V333.037Z" fill="white"/>
<path d="M529.932 351.295C534.954 352.185 540.128 351.149 544.42 348.394C544.846 348.121 545.247 348.795 544.823 349.068C540.35 351.927 534.964 352.994 529.74 352.056C529.242 351.966 529.437 351.206 529.932 351.295Z" fill="white"/>
<path d="M561.251 321.781C561.648 322.684 562.262 323.475 563.04 324.081C563.817 324.688 564.733 325.093 565.705 325.258C566.204 325.342 566.008 326.102 565.513 326.019C564.44 325.831 563.429 325.384 562.568 324.715C561.708 324.046 561.025 323.177 560.578 322.183C560.528 322.093 560.514 321.987 560.539 321.887C560.564 321.788 560.627 321.701 560.713 321.645C560.803 321.593 560.91 321.577 561.01 321.603C561.111 321.628 561.198 321.692 561.251 321.781Z" fill="white"/>
<path d="M595.363 375.183C595.05 375.139 594.737 375.096 594.42 375.058C590.209 374.499 585.961 374.283 581.715 374.412C581.387 374.417 581.054 374.427 580.727 374.441C570.502 374.862 560.445 377.177 551.066 381.269C547.335 382.9 543.734 384.814 540.293 386.992C535.542 390 530.63 393.64 525.319 394.867C524.766 395.001 524.206 395.101 523.641 395.166L501.696 376.165C501.668 376.096 501.635 376.033 501.607 375.964L500.696 375.246C500.865 375.121 501.044 374.995 501.214 374.871C501.312 374.798 501.415 374.729 501.513 374.657C501.58 374.609 501.647 374.562 501.704 374.516C501.727 374.5 501.749 374.485 501.767 374.474C501.825 374.428 501.883 374.391 501.937 374.349C502.933 373.644 503.936 372.944 504.946 372.25C504.95 372.245 504.95 372.245 504.959 372.244C512.602 366.883 520.853 362.448 529.541 359.031C529.802 358.932 530.066 358.828 530.337 358.739C534.25 357.284 538.274 356.151 542.371 355.352C544.616 354.922 546.881 354.606 549.158 354.404C555.042 353.896 560.969 354.316 566.722 355.649C578.191 358.308 588.682 364.606 594.896 374.428C595.054 374.679 595.209 374.926 595.363 375.183Z" fill="#E6E6E6"/>
<path d="M595.073 375.418C582.266 368.127 567.487 365.056 552.836 366.642C549.676 366.928 546.58 367.709 543.663 368.959C540.862 370.268 538.461 372.303 536.712 374.853C535.033 377.198 533.587 379.791 531.368 381.687C530.217 382.641 528.878 383.341 527.438 383.741C525.998 384.141 524.49 384.232 523.012 384.008C519.316 383.545 516.006 381.783 512.829 379.946C509.302 377.907 505.671 375.734 501.51 375.437C501.006 375.401 501.091 374.621 501.595 374.657C508.833 375.173 514.122 380.959 520.936 382.799C524.116 383.657 527.573 383.563 530.301 381.535C532.686 379.761 534.18 377.089 535.859 374.7C537.529 372.187 539.789 370.121 542.441 368.683C545.285 367.289 548.345 366.389 551.491 366.022C558.559 365.083 565.732 365.261 572.745 366.549C580.757 367.975 588.466 370.762 595.539 374.787C595.977 375.037 595.507 375.666 595.073 375.418V375.418Z" fill="white"/>
<path d="M557.523 365.854C557.591 363.359 558.543 360.97 560.209 359.113C561.876 357.256 564.148 356.052 566.62 355.715C567.121 355.649 567.248 356.424 566.746 356.49C564.443 356.799 562.327 357.921 560.779 359.654C559.23 361.386 558.352 363.615 558.303 365.938C558.292 366.443 557.512 366.356 557.523 365.854V365.854Z" fill="white"/>
<path d="M537.406 373.552C540.881 377.286 545.635 379.574 550.721 379.959C551.225 379.996 551.14 380.776 550.637 380.739C545.345 380.328 540.402 377.938 536.795 374.044C536.452 373.672 537.065 373.182 537.406 373.552H537.406Z" fill="white"/>
<path d="M580.182 368.843C579.955 369.802 579.97 370.804 580.225 371.756C580.48 372.709 580.968 373.583 581.645 374.3C581.993 374.667 581.379 375.157 581.033 374.792C580.289 373.996 579.752 373.03 579.468 371.978C579.183 370.926 579.161 369.821 579.402 368.758C579.417 368.656 579.469 368.563 579.55 368.499C579.63 368.434 579.732 368.403 579.835 368.41C579.938 368.422 580.032 368.474 580.097 368.555C580.162 368.636 580.193 368.739 580.182 368.843Z" fill="white"/>
<path d="M181.548 340.787C192.378 324.36 211.752 312.477 231.261 315.034C215.771 329.795 206.001 349.559 203.68 370.83C202.815 379.037 202.707 388.254 196.837 394.054C193.185 397.663 187.867 399.177 182.732 399.228C177.598 399.28 172.551 398.02 167.572 396.768L166.324 397.062C167.155 377.404 170.718 357.214 181.548 340.787Z" fill="#E6E6E6"/>
<path d="M231.263 315.447C216.156 321.533 203.352 332.224 194.668 346.002C192.746 348.935 191.298 352.152 190.378 355.536C189.588 358.861 189.703 362.337 190.71 365.602C191.589 368.666 192.842 371.698 192.961 374.922C192.997 376.574 192.684 378.214 192.041 379.735C191.399 381.257 190.442 382.626 189.234 383.752C186.297 386.636 182.498 388.292 178.727 389.783C174.54 391.438 170.164 393.091 167.051 396.49C166.674 396.902 166.057 396.293 166.434 395.882C171.85 389.967 180.491 389.358 186.762 384.72C189.689 382.555 191.98 379.496 192.096 375.741C192.198 372.458 190.908 369.33 189.992 366.236C188.962 363.064 188.724 359.689 189.3 356.405C190.045 352.985 191.366 349.717 193.208 346.741C197.246 339.974 202.324 333.885 208.254 328.695C214.989 322.735 222.695 317.971 231.036 314.61C231.553 314.402 231.776 315.24 231.263 315.447L231.263 315.447Z" fill="white"/>
<path d="M197.203 341.401C195.09 339.63 193.674 337.166 193.21 334.447C192.745 331.729 193.262 328.935 194.668 326.562C194.954 326.083 195.712 326.505 195.425 326.985C194.112 329.192 193.631 331.795 194.069 334.325C194.506 336.855 195.834 339.146 197.812 340.783C198.241 341.139 197.63 341.755 197.203 341.401Z" fill="white"/>
<path d="M190.061 364.108C195.681 363.662 200.925 361.115 204.75 356.974C205.129 356.564 205.746 357.173 205.368 357.583C201.38 361.885 195.916 364.524 190.068 364.975C189.51 365.017 189.507 364.15 190.061 364.108H190.061Z" fill="white"/>
<path d="M215.347 323.828C216.023 324.684 216.9 325.359 217.9 325.791C218.9 326.224 219.992 326.402 221.078 326.308C221.635 326.259 221.637 327.126 221.084 327.176C219.884 327.273 218.678 327.076 217.572 326.6C216.466 326.124 215.493 325.385 214.739 324.446C214.66 324.364 214.616 324.254 214.615 324.14C214.614 324.027 214.657 323.917 214.734 323.833C214.815 323.752 214.925 323.705 215.04 323.705C215.155 323.704 215.265 323.748 215.347 323.828H215.347Z" fill="white"/>
<path d="M266.687 371.453C266.34 371.494 265.994 371.535 265.643 371.582C260.985 372.156 256.381 373.107 251.876 374.426C251.526 374.523 251.173 374.626 250.827 374.732C240.009 378.026 229.896 383.3 221.003 390.286C217.467 393.069 214.147 396.117 211.074 399.404C206.829 403.943 202.588 409.202 197.249 411.992C196.695 412.289 196.123 412.552 195.537 412.779L166.78 398.561C166.731 398.496 166.679 398.438 166.629 398.372L165.455 397.857C165.602 397.677 165.758 397.492 165.904 397.312C165.989 397.207 166.08 397.105 166.165 397C166.223 396.931 166.282 396.862 166.331 396.796C166.35 396.773 166.37 396.75 166.386 396.733C166.435 396.668 166.487 396.612 166.533 396.553C167.402 395.521 168.28 394.494 169.167 393.471C169.17 393.464 169.17 393.464 169.18 393.461C175.957 385.683 183.442 378.403 191.795 372.49C192.046 372.312 192.301 372.127 192.565 371.956C196.345 369.312 200.334 366.981 204.494 364.986C206.775 363.902 209.11 362.933 211.489 362.084C217.64 359.903 224.096 358.704 230.621 358.529C243.627 358.183 256.599 362 265.977 370.776C266.217 371 266.45 371.222 266.687 371.453Z" fill="#E6E6E6"/>
<path d="M266.442 371.786C250.716 367.551 234.055 368.378 218.826 374.15C215.526 375.334 212.433 377.032 209.661 379.179C207.028 381.359 205.027 384.203 203.866 387.417C202.722 390.393 201.898 393.568 200.051 396.214C199.086 397.554 197.848 398.675 196.419 399.503C194.99 400.331 193.403 400.848 191.76 401.02C187.678 401.554 183.648 400.589 179.739 399.509C175.4 398.309 170.911 396.995 166.379 397.835C165.83 397.937 165.704 397.079 166.252 396.977C174.137 395.515 181.403 400.233 189.203 400.305C192.843 400.338 196.515 399.275 198.868 396.347C200.926 393.787 201.779 390.513 202.911 387.49C203.998 384.338 205.84 381.5 208.277 379.224C210.931 376.942 213.953 375.129 217.215 373.861C224.514 370.89 232.234 369.085 240.094 368.512C249.06 367.808 258.081 368.643 266.765 370.981C267.303 371.126 266.975 371.93 266.442 371.786Z" fill="white"/>
<path d="M223.621 372.003C222.999 369.316 223.353 366.496 224.618 364.046C225.884 361.596 227.979 359.676 230.53 358.628C231.047 358.418 231.398 359.211 230.88 359.422C228.503 360.393 226.552 362.182 225.378 364.466C224.204 366.749 223.885 369.378 224.478 371.876C224.607 372.419 223.748 372.543 223.621 372.003H223.621Z" fill="white"/>
<path d="M204.246 385.832C209.001 388.86 214.723 389.984 220.269 388.98C220.819 388.881 220.945 389.739 220.396 389.838C214.622 390.872 208.67 389.69 203.729 386.529C203.259 386.227 203.778 385.532 204.246 385.832V385.832Z" fill="white"/>
<path d="M248.687 368.896C248.711 369.985 249.006 371.052 249.544 372C250.082 372.947 250.847 373.747 251.77 374.326C252.244 374.621 251.724 375.316 251.253 375.022C250.236 374.378 249.392 373.494 248.795 372.448C248.198 371.402 247.867 370.226 247.83 369.022C247.817 368.909 247.847 368.795 247.915 368.704C247.983 368.612 248.083 368.55 248.195 368.53C248.309 368.514 248.424 368.543 248.516 368.612C248.609 368.68 248.67 368.782 248.687 368.896V368.896Z" fill="white"/>
<path d="M258.628 217.628C259.346 216.914 259.899 216.05 260.248 215.098C260.597 214.146 260.732 213.129 260.646 212.119C260.559 211.109 260.252 210.131 259.746 209.252C259.24 208.374 258.547 207.617 257.717 207.035L269.036 152.255L256.824 156.108L247.718 209.103C246.833 210.562 246.514 212.295 246.821 213.974C247.129 215.653 248.041 217.161 249.386 218.211C250.731 219.262 252.414 219.783 254.118 219.676C255.821 219.569 257.426 218.84 258.628 217.628Z" fill="#FFB6B6"/>
<path d="M284.79 71.2003L277.226 65.4902C277.226 65.4902 270.553 65.0176 269.371 77.0517C268.189 89.0858 260.789 135.272 260.789 135.272L249.214 188.884L265.237 192.401L277.635 134.545L290.046 94.6293L284.79 71.2003Z" fill="#E6E6E6"/>
<path d="M279.027 170.401L242.742 142.187C242.177 141.747 241.809 141.1 241.72 140.389C241.631 139.678 241.828 138.961 242.267 138.395L266.956 106.643C267.396 106.078 268.043 105.711 268.754 105.622C269.465 105.533 270.182 105.729 270.748 106.169L307.034 134.383C307.599 134.823 307.966 135.47 308.055 136.181C308.144 136.892 307.948 137.609 307.509 138.175L282.82 169.927C282.38 170.492 281.733 170.859 281.022 170.948C280.311 171.037 279.594 170.841 279.027 170.401Z" fill="#3F3D56"/>
<path d="M278.828 167.482L245.62 141.661C245.118 141.27 244.792 140.696 244.713 140.065C244.634 139.433 244.809 138.796 245.199 138.294L267.58 109.509C267.971 109.008 268.545 108.681 269.176 108.602C269.808 108.523 270.445 108.698 270.947 109.088L304.155 134.909C304.657 135.3 304.983 135.874 305.062 136.505C305.141 137.137 304.966 137.773 304.576 138.276L282.195 167.06C281.804 167.562 281.23 167.888 280.598 167.967C279.967 168.046 279.33 167.872 278.828 167.482Z" fill="white"/>
<path d="M249.974 140.929C249.848 140.831 249.767 140.688 249.747 140.53C249.727 140.372 249.771 140.213 249.868 140.087L261.159 125.566C261.257 125.441 261.4 125.359 261.558 125.339C261.636 125.33 261.715 125.335 261.791 125.356C261.867 125.377 261.939 125.413 262.001 125.461C262.063 125.509 262.115 125.57 262.154 125.638C262.193 125.706 262.218 125.782 262.228 125.86C262.237 125.938 262.232 126.018 262.211 126.094C262.19 126.17 262.154 126.241 262.106 126.303L250.815 140.824C250.718 140.949 250.574 141.031 250.416 141.05C250.258 141.07 250.099 141.026 249.974 140.929Z" fill="#E4E4E4"/>
<path d="M251.845 142.384C251.72 142.286 251.638 142.143 251.618 141.985C251.599 141.827 251.642 141.668 251.74 141.542L263.031 127.021C263.128 126.896 263.272 126.814 263.43 126.794C263.587 126.775 263.747 126.818 263.872 126.916C263.998 127.014 264.08 127.157 264.099 127.315C264.119 127.473 264.075 127.632 263.978 127.758L252.687 142.279C252.589 142.404 252.446 142.486 252.288 142.505C252.13 142.525 251.971 142.482 251.845 142.384Z" fill="#E4E4E4"/>
<path d="M260.112 135.613C259.987 135.515 259.905 135.371 259.886 135.214C259.866 135.056 259.909 134.897 260.007 134.771L264.901 128.476C264.949 128.414 265.01 128.362 265.078 128.323C265.147 128.284 265.222 128.259 265.3 128.249C265.379 128.239 265.458 128.245 265.534 128.265C265.61 128.286 265.681 128.322 265.744 128.37C265.806 128.419 265.858 128.479 265.897 128.548C265.936 128.616 265.961 128.692 265.971 128.77C265.98 128.848 265.975 128.928 265.954 129.004C265.933 129.08 265.897 129.151 265.848 129.213L260.954 135.507C260.856 135.633 260.713 135.714 260.555 135.734C260.397 135.754 260.238 135.71 260.112 135.613Z" fill="#E4E4E4"/>
<path d="M262.636 147.965C262.511 147.867 262.429 147.724 262.409 147.566C262.39 147.408 262.433 147.249 262.531 147.123L280.355 124.199C280.404 124.137 280.464 124.085 280.532 124.046C280.601 124.007 280.676 123.982 280.754 123.972C280.833 123.962 280.912 123.968 280.988 123.989C281.064 124.01 281.135 124.045 281.197 124.094C281.259 124.142 281.311 124.202 281.35 124.271C281.389 124.339 281.414 124.415 281.424 124.493C281.434 124.571 281.428 124.65 281.407 124.726C281.386 124.802 281.351 124.873 281.302 124.936L263.478 147.859C263.38 147.985 263.237 148.066 263.079 148.086C262.921 148.106 262.762 148.062 262.636 147.965Z" fill="#E4E4E4"/>
<path d="M264.507 149.42C264.382 149.322 264.3 149.179 264.281 149.021C264.261 148.863 264.304 148.704 264.402 148.578L282.226 125.654C282.275 125.592 282.335 125.54 282.403 125.501C282.472 125.462 282.547 125.437 282.626 125.427C282.704 125.417 282.783 125.423 282.859 125.444C282.935 125.465 283.006 125.5 283.068 125.549C283.13 125.597 283.182 125.657 283.221 125.726C283.26 125.794 283.286 125.87 283.295 125.948C283.305 126.026 283.299 126.105 283.278 126.181C283.258 126.257 283.222 126.328 283.174 126.391L265.349 149.315C265.251 149.44 265.108 149.521 264.95 149.541C264.792 149.561 264.633 149.517 264.507 149.42Z" fill="#E4E4E4"/>
<path d="M268.755 152.723C268.63 152.625 268.548 152.481 268.529 152.324C268.509 152.166 268.552 152.007 268.65 151.881L286.474 128.957C286.523 128.895 286.583 128.843 286.651 128.804C286.72 128.765 286.795 128.74 286.874 128.73C286.952 128.72 287.031 128.726 287.107 128.747C287.183 128.768 287.254 128.803 287.316 128.852C287.378 128.9 287.431 128.96 287.469 129.029C287.508 129.097 287.534 129.173 287.543 129.251C287.553 129.329 287.547 129.408 287.526 129.484C287.506 129.56 287.47 129.631 287.422 129.694L269.597 152.617C269.499 152.743 269.356 152.824 269.198 152.844C269.04 152.864 268.881 152.82 268.755 152.723Z" fill="#E4E4E4"/>
<path d="M270.626 154.178C270.501 154.08 270.419 153.936 270.4 153.779C270.38 153.621 270.424 153.462 270.521 153.336L288.346 130.412C288.394 130.35 288.454 130.298 288.523 130.259C288.591 130.22 288.666 130.195 288.745 130.185C288.823 130.175 288.902 130.181 288.978 130.202C289.054 130.223 289.125 130.258 289.187 130.307C289.25 130.355 289.302 130.415 289.341 130.484C289.38 130.552 289.405 130.628 289.414 130.706C289.424 130.784 289.418 130.863 289.398 130.939C289.377 131.015 289.341 131.086 289.293 131.149L271.468 154.072C271.371 154.198 271.227 154.279 271.069 154.299C270.911 154.319 270.752 154.275 270.626 154.178Z" fill="#E4E4E4"/>
<path d="M274.874 157.481C274.749 157.383 274.667 157.239 274.647 157.082C274.627 156.924 274.671 156.765 274.769 156.639L292.593 133.715C292.641 133.653 292.702 133.601 292.77 133.562C292.839 133.523 292.914 133.498 292.992 133.488C293.07 133.478 293.15 133.484 293.226 133.505C293.302 133.526 293.373 133.561 293.435 133.61C293.497 133.658 293.549 133.718 293.588 133.787C293.627 133.855 293.652 133.931 293.662 134.009C293.672 134.087 293.666 134.166 293.645 134.242C293.624 134.318 293.589 134.389 293.54 134.452L275.716 157.375C275.618 157.501 275.474 157.582 275.317 157.602C275.159 157.622 275 157.578 274.874 157.481Z" fill="#E4E4E4"/>
<path d="M276.746 158.936C276.62 158.838 276.539 158.694 276.519 158.537C276.499 158.379 276.543 158.22 276.64 158.094L294.465 135.17C294.563 135.045 294.706 134.964 294.864 134.944C295.021 134.925 295.18 134.969 295.305 135.066C295.431 135.164 295.512 135.307 295.532 135.464C295.552 135.622 295.509 135.781 295.412 135.907L277.587 158.83C277.49 158.956 277.346 159.037 277.188 159.057C277.03 159.077 276.871 159.033 276.746 158.936Z" fill="#E4E4E4"/>
<path d="M246.955 185.558C247.091 185.558 247.201 185.448 247.201 185.312C247.201 185.176 247.091 185.066 246.955 185.066C246.819 185.066 246.708 185.176 246.708 185.312C246.708 185.448 246.819 185.558 246.955 185.558Z" fill="white"/>
<path d="M282.846 15.8407C281.979 20.4953 280.559 25.0295 278.614 29.3463C267.479 52.9021 299.19 45.2241 310.522 45.2241C322.912 45.2241 334.767 51.7394 332.956 22.7899C332.183 10.424 322.912 0.355713 310.522 0.355713C299.939 0.355713 285.059 5.05973 282.846 15.8407Z" fill="#2F2E41"/>
<path d="M322.071 361.32H311.515L306.491 320.602H322.071V361.32Z" fill="#FFB6B6"/>
<path d="M327.643 379.61H320.072L318.721 372.463L315.26 379.61H295.182C294.219 379.61 293.282 379.302 292.507 378.732C291.732 378.162 291.159 377.359 290.872 376.44C290.586 375.521 290.601 374.535 290.915 373.625C291.229 372.715 291.825 371.929 292.617 371.382L308.651 360.309V353.083L325.516 354.09L327.643 379.61Z" fill="#2F2E41"/>
<path d="M384.786 347.997L376.315 354.297L347.988 324.621L360.49 315.324L384.786 347.997Z" fill="#FFB6B6"/>
<path d="M400.171 359.35L394.096 363.867L388.747 358.938L390.235 366.739L374.123 378.72C373.351 379.294 372.415 379.607 371.453 379.612C370.49 379.617 369.551 379.314 368.773 378.747C367.995 378.181 367.418 377.381 367.127 376.463C366.836 375.546 366.846 374.559 367.155 373.648L373.414 355.194L369.102 349.396L383.236 340.14L400.171 359.35Z" fill="#2F2E41"/>
<path d="M287.497 173.925L337.608 166.121L327.643 136.141H287.497V173.925Z" fill="#FFB6B6"/>
<path d="M334.361 151.24C334.361 151.24 354.39 168.545 345.149 217.875L333.867 266.21L364.605 319.575L348.975 328.1L311.096 275.453L293.763 234.795L284.594 163.537L334.361 151.24Z" fill="#2F2E41"/>
<path d="M303.317 246.382L302.112 265.039L305.638 320.286L323.147 326.314L326.462 269.708L303.317 246.382Z" fill="#2F2E41"/>
<path d="M297.934 51.4333L317.304 52.189L325.024 65.0036L342.637 68.442L332.123 121.635L334.056 151.911L316.518 151.805C303.879 151.727 291.656 156.319 282.194 164.699L282.719 125.398L275.175 96.0598L276.871 65.2969L291.04 63.5258L297.934 51.4333Z" fill="#E6E6E6"/>
<path d="M308.665 45.2186C318.734 45.2186 326.896 37.0566 326.896 26.9883C326.896 16.9199 318.734 8.75793 308.665 8.75793C298.597 8.75793 290.435 16.9199 290.435 26.9883C290.435 37.0566 298.597 45.2186 308.665 45.2186Z" fill="#FFB6B6"/>
<path d="M296.285 8.4049C299.479 6.4574 303.139 5.40392 306.88 5.3546C310.621 5.30528 314.306 6.26194 317.551 8.12454C320.796 9.98714 323.48 12.6873 325.324 15.9426C327.168 19.1979 328.104 22.8889 328.033 26.6296C318.744 28.9619 308.985 30.7467 299.079 27.1874L296.739 21.4618L295.36 27.1917C292.343 28.4248 289.319 29.4681 286.294 27.1798C286.17 23.4496 287.028 19.7524 288.781 16.4577C290.535 13.163 293.122 10.3862 296.285 8.4049Z" fill="#2F2E41"/>
<path d="M339.265 188.666L341.723 210.969C341.894 211.525 342.239 212.012 342.707 212.358C343.176 212.704 343.743 212.89 344.325 212.89H355.653C356.235 212.89 356.802 212.704 357.27 212.358C357.739 212.012 358.084 211.525 358.255 210.969L360.29 193.875C360.878 194.163 361.526 194.307 362.18 194.296C362.834 194.285 363.476 194.119 364.054 193.812C364.631 193.504 365.128 193.064 365.502 192.527C365.876 191.99 366.118 191.372 366.206 190.724C366.295 190.076 366.229 189.416 366.013 188.798C365.797 188.18 365.438 187.623 364.964 187.171C364.491 186.719 363.917 186.387 363.29 186.2C362.662 186.013 362 185.978 361.357 186.098C361.103 185.798 360.786 185.557 360.429 185.392C360.073 185.227 359.684 185.142 359.291 185.143H341.868C341.442 185.143 341.021 185.243 340.641 185.435C340.261 185.627 339.931 185.905 339.678 186.248C339.424 186.591 339.255 186.988 339.184 187.408C339.112 187.828 339.14 188.259 339.265 188.666ZM360.646 192.719L361.893 188.666C362.037 188.198 362.052 187.7 361.934 187.225C361.988 187.222 362.038 187.209 362.092 187.209C362.874 187.209 363.625 187.52 364.179 188.074C364.732 188.627 365.043 189.378 365.043 190.161C365.043 190.944 364.732 191.695 364.179 192.248C363.625 192.802 362.874 193.113 362.092 193.113C361.584 193.11 361.085 192.974 360.646 192.719Z" fill="#7996D0"/>
<path d="M356.347 212.906C355.632 212.187 355.083 211.32 354.74 210.367C354.396 209.413 354.265 208.396 354.357 207.386C354.449 206.377 354.761 205.4 355.272 204.524C355.782 203.648 356.478 202.895 357.311 202.317L346.271 147.481L358.463 151.395L367.3 204.436C368.178 205.899 368.488 207.634 368.172 209.311C367.856 210.989 366.936 212.492 365.586 213.536C364.236 214.58 362.549 215.092 360.847 214.976C359.144 214.86 357.543 214.123 356.347 212.906Z" fill="#FFB6B6"/>
<path d="M335.073 74.1522L342.637 68.4421C342.637 68.4421 349.31 67.9695 350.492 80.0036C351.674 92.0377 359.074 138.224 359.074 138.224L370.649 191.836L354.626 195.353L342.228 137.497L329.817 97.5812L335.073 74.1522Z" fill="#E6E6E6"/>
<path d="M269.786 124.07C272.151 124.07 274.068 122.153 274.068 119.788C274.068 117.423 272.151 115.506 269.786 115.506C267.422 115.506 265.504 117.423 265.504 119.788C265.504 122.153 267.422 124.07 269.786 124.07Z" fill="#7996D0"/>
<path d="M133.24 410.994L142.164 410.994L146.409 376.573L133.238 376.574L133.24 410.994Z" fill="#FFB6B6"/>
<path d="M130.963 408.081L133.475 408.08L143.281 404.092L148.537 408.08H148.538C151.508 408.08 154.357 409.26 156.457 411.36C158.557 413.461 159.737 416.309 159.737 419.279V419.643L130.963 419.644L130.963 408.081Z" fill="#2F2E41"/>
<path d="M167.821 405.37L176.526 407.336L188.249 374.697L175.401 371.796L167.821 405.37Z" fill="#FFB6B6"/>
<path d="M166.243 402.027L168.693 402.58L179.137 400.85L183.385 405.898L183.386 405.898C186.283 406.552 188.802 408.331 190.388 410.842C191.974 413.353 192.497 416.392 191.843 419.289L191.763 419.644L163.696 413.307L166.243 402.027Z" fill="#2F2E41"/>
<path d="M116.903 233.941L124.972 324.352C124.972 324.352 121.949 378.63 131.705 397.73H145.855L152.861 319.395L153.74 266.816L184.076 311.175L164.754 396.45L182.169 398.006L213.523 305.464L179.077 218.588L116.903 233.941Z" fill="#2F2E41"/>
<path d="M125.354 89.9646C136.847 89.9646 146.165 80.6472 146.165 69.1537C146.165 57.6601 136.847 48.3428 125.354 48.3428C113.86 48.3428 104.543 57.6601 104.543 69.1537C104.543 80.6472 113.86 89.9646 125.354 89.9646Z" fill="#FFB8B8"/>
<path d="M161.938 109.796L144.865 102.471L136.554 93.6554L115.791 97.0039L110.283 106.449L92.4497 123.031L113.343 217.501L112.711 238.134C112.711 238.134 126.083 244.154 184.076 230.293C184.771 230.127 183.316 229.399 183.316 229.399L161.938 109.796Z" fill="#3F3D56"/>
<path d="M103.714 80.9623C103.569 80.7644 103.425 80.5649 103.283 80.3636C103.226 80.4845 103.181 80.6093 103.115 80.7273L103.714 80.9623Z" fill="#2F2E41"/>
<path d="M146.056 53.9314C144.664 50.901 142.184 48.5049 139.108 47.2192C136.058 45.9892 132.65 45.9922 129.603 47.2275C126.851 45.4893 123.795 44.1112 120.575 43.9406C117.356 43.7699 113.952 44.9642 111.968 47.5933C111.525 48.2873 111.022 48.941 110.464 49.5469C108.87 51.0237 106.446 50.8107 104.326 50.5087C105.277 51.3236 106.228 52.1384 107.179 52.9532C106.028 53.2539 104.877 53.5545 103.726 53.8552C105.07 54.6697 106.413 55.4843 107.755 56.2989C103.856 58.6391 102.084 63.7468 102.552 68.3858C102.995 72.7778 105.116 76.794 107.651 80.3636C108.662 78.2298 108.444 75.6766 108.427 73.2733C108.41 70.734 108.859 67.8505 110.894 66.4314C112.266 65.4741 114.031 65.4313 115.686 65.4404C124.035 65.4862 132.375 66.0068 140.665 66.9998C141.79 67.0485 142.887 67.3666 143.863 67.9273C145.696 69.178 146.053 71.759 146.237 74.0233C147.206 70.2846 147.68 66.435 147.647 62.573C147.729 59.6127 147.187 56.6684 146.056 53.9314Z" fill="#2F2E41"/>
<path d="M152.534 297.32C170.624 297.32 185.289 282.655 185.289 264.565C185.289 246.475 170.624 231.81 152.534 231.81C134.444 231.81 119.779 246.475 119.779 264.565C119.779 282.655 134.444 297.32 152.534 297.32Z" fill="white"/>
<path d="M152.535 231.082C150.851 231.082 149.17 231.209 147.505 231.46C146.653 231.584 145.824 231.744 145.001 231.941C138.958 233.334 133.421 236.378 129.008 240.734C124.595 245.091 121.479 250.587 120.007 256.612C118.536 262.636 118.767 268.95 120.676 274.85C122.584 280.751 126.094 286.005 130.815 290.026C131.375 290.499 131.943 290.958 132.532 291.395C136.782 294.563 141.723 296.677 146.949 297.563C152.175 298.448 157.537 298.08 162.593 296.489C167.649 294.897 172.254 292.128 176.031 288.408C179.808 284.689 182.647 280.126 184.316 275.095C185.984 270.064 186.434 264.708 185.629 259.469C184.823 254.23 182.785 249.258 179.682 244.96C176.579 240.663 172.499 237.164 167.78 234.751C163.06 232.338 157.835 231.081 152.535 231.082V231.082ZM152.535 296.592C145.725 296.599 139.092 294.423 133.61 290.383C133.013 289.946 132.438 289.495 131.877 289.014C127.278 285.135 123.866 280.038 122.032 274.308C120.197 268.577 120.015 262.446 121.506 256.617C122.997 250.788 126.1 245.497 130.461 241.352C134.821 237.206 140.262 234.373 146.159 233.178C146.973 233.011 147.789 232.88 148.619 232.778C149.918 232.617 151.226 232.537 152.535 232.538C161.029 232.538 169.175 235.912 175.181 241.918C181.187 247.924 184.562 256.071 184.562 264.565C184.562 273.059 181.187 281.205 175.181 287.211C169.175 293.217 161.029 296.592 152.535 296.592Z" fill="#3F3D56"/>
<path d="M136.469 258.014H168.601C169.778 258.014 170.732 257.059 170.732 255.882V255.778C170.732 254.601 169.778 253.646 168.601 253.646H136.469C135.292 253.646 134.338 254.601 134.338 255.778V255.882C134.338 257.059 135.292 258.014 136.469 258.014Z" fill="#7996D0"/>
<path d="M136.469 266.748H168.601C169.778 266.748 170.732 265.794 170.732 264.617V264.512C170.732 263.335 169.778 262.381 168.601 262.381H136.469C135.292 262.381 134.338 263.335 134.338 264.512V264.617C134.338 265.794 135.292 266.748 136.469 266.748Z" fill="#7996D0"/>
<path d="M136.469 275.483H168.601C169.778 275.483 170.732 274.529 170.732 273.352V273.247C170.732 272.07 169.778 271.116 168.601 271.116H136.469C135.292 271.116 134.338 272.07 134.338 273.247V273.352C134.338 274.529 135.292 275.483 136.469 275.483Z" fill="#7996D0"/>
<path d="M518.99 409.883L509.633 409.882L505.182 373.791L518.992 373.791L518.99 409.883Z" fill="#9E616A"/>
<path d="M474.722 409.883L465.366 409.882L460.914 373.791L474.724 373.791L474.722 409.883Z" fill="#9E616A"/>
<path d="M475.052 419.644L446.278 419.643V419.279C446.278 416.309 447.458 413.461 449.558 411.36C451.659 409.26 454.507 408.08 457.477 408.08H457.478L462.734 404.092L472.541 408.08L475.052 408.081L475.052 419.644Z" fill="#2F2E41"/>
<path d="M520.52 419.644L491.746 419.643V419.279C491.746 416.309 492.926 413.461 495.027 411.36C497.127 409.26 499.975 408.08 502.946 408.08H502.946L508.202 404.092L518.009 408.08L520.521 408.081L520.52 419.644Z" fill="#2F2E41"/>
<path d="M465.544 196.28L451.324 282.871L455.194 295.775L450.115 304.914L457.573 385.172L454.546 391.837L463.004 397.053H480.215L481.128 324.395L485.38 313.727V307.848L494.035 263.542L495.628 325.589L498.146 336.274L496.031 343.881L498.794 349.211L506.134 398.637H525.433L523.94 387.138C525.621 386.287 526.972 384.901 527.78 383.199C528.587 381.496 528.806 379.574 528.402 377.733L527.296 372.693L529.814 357.791L534.4 274.653L533.107 207.571L510.531 190.307L465.544 196.28Z" fill="#2F2E41"/>
<path d="M498.145 85.0863C508.048 85.0863 516.076 77.0584 516.076 67.1556C516.076 57.2528 508.048 49.225 498.145 49.225C488.243 49.225 480.215 57.2528 480.215 67.1556C480.215 77.0584 488.243 85.0863 498.145 85.0863Z" fill="#9E616A"/>
<path d="M458.969 230.642C459.75 229.836 460.344 228.868 460.71 227.807C461.076 226.747 461.205 225.619 461.087 224.503C460.97 223.387 460.61 222.31 460.032 221.349C459.453 220.387 458.671 219.564 457.74 218.938L464.713 192.57L451.28 197.088L446.718 221.435C445.769 223.068 445.452 224.993 445.827 226.845C446.202 228.696 447.244 230.345 448.754 231.48C450.264 232.615 452.138 233.157 454.021 233.002C455.904 232.848 457.664 232.008 458.969 230.642H458.969Z" fill="#9E616A"/>
<path d="M466.307 104.045L463.424 103.447L460.964 104.809C460.964 104.809 454.095 113.967 454.095 122.363C454.095 130.759 445.7 211.662 445.7 211.662L460.964 218.531L473.176 155.182L466.307 104.045Z" fill="#E6E6E6"/>
<path d="M513.848 54.0092C513.848 54.0092 518.538 45.0439 508.22 44.2289C508.22 44.2289 499.424 36.25 490.459 42.7702C490.459 42.7702 485.569 42.7702 482.895 48.304C482.895 48.304 479.049 46.8454 478.203 50.7491C478.203 50.7491 475.389 58.8994 478.203 66.2347C481.018 73.5699 481.953 74.385 481.953 74.385C481.953 74.385 477.328 59.0062 488.584 58.1912C499.841 57.3761 512.437 50.3416 513.375 59.3069C514.313 68.2722 515.725 70.4812 515.725 70.4812C515.725 70.4812 524.635 57.6769 513.848 54.0092Z" fill="#2F2E41"/>
<path d="M579.348 304.914C577.994 304.916 576.688 304.417 575.68 303.514L521.416 255.211C520.322 254.235 519.66 252.865 519.575 251.402C519.49 249.94 519.989 248.503 520.962 247.407L555.724 208.356C556.7 207.262 558.069 206.6 559.532 206.515C560.995 206.43 562.432 206.929 563.528 207.902L617.793 256.206C618.887 257.181 619.55 258.55 619.635 260.014C619.72 261.477 619.221 262.914 618.246 264.009L583.484 303.061C583.002 303.604 582.418 304.047 581.764 304.364C581.111 304.68 580.401 304.864 579.675 304.904C579.566 304.911 579.457 304.914 579.348 304.914Z" fill="white"/>
<path d="M579.347 305.269C577.907 305.271 576.516 304.741 575.443 303.78L521.179 255.476C520.016 254.438 519.311 252.98 519.221 251.423C519.13 249.866 519.661 248.337 520.697 247.17L555.459 208.119C556.497 206.955 557.955 206.251 559.512 206.161C561.069 206.07 562.598 206.601 563.765 207.636L618.029 255.94C619.194 256.978 619.899 258.436 619.99 259.993C620.08 261.551 619.549 263.08 618.511 264.246L583.749 303.297C583.237 303.876 582.615 304.347 581.919 304.684C581.224 305.021 580.468 305.216 579.696 305.259C579.579 305.265 579.463 305.269 579.347 305.269ZM559.855 207.571C559.225 207.569 558.602 207.702 558.027 207.959C557.453 208.217 556.939 208.593 556.52 209.064L521.758 248.115C520.973 249 520.57 250.16 520.639 251.341C520.707 252.522 521.242 253.627 522.124 254.415L576.388 302.719C576.826 303.108 577.336 303.408 577.89 303.6C578.443 303.793 579.029 303.874 579.614 303.84C580.199 303.806 580.771 303.657 581.299 303.402C581.826 303.147 582.298 302.79 582.688 302.352L617.45 263.301C618.237 262.417 618.64 261.257 618.571 260.076C618.503 258.894 617.968 257.789 617.084 257.002L562.82 208.698C562.004 207.97 560.948 207.569 559.855 207.571H559.855Z" fill="#3F3D56"/>
<path d="M599.025 267.93C598.439 267.931 597.873 267.716 597.436 267.326L554.841 229.409C554.605 229.2 554.413 228.947 554.275 228.664C554.137 228.381 554.057 228.074 554.038 227.76C554.019 227.445 554.063 227.131 554.166 226.833C554.269 226.536 554.43 226.262 554.639 226.027C554.848 225.791 555.102 225.6 555.385 225.463C555.669 225.326 555.976 225.247 556.291 225.229C556.605 225.211 556.92 225.256 557.217 225.36C557.514 225.464 557.787 225.626 558.022 225.836L600.617 263.753C600.979 264.075 601.235 264.5 601.35 264.971C601.466 265.442 601.435 265.937 601.262 266.39C601.089 266.843 600.783 267.233 600.383 267.508C599.984 267.783 599.51 267.93 599.025 267.93Z" fill="#7996D0"/>
<path d="M590.901 277.057C590.315 277.058 589.749 276.842 589.311 276.452L546.716 238.535C546.482 238.327 546.291 238.074 546.154 237.791C546.017 237.508 545.937 237.201 545.919 236.888C545.901 236.574 545.945 236.26 546.048 235.963C546.151 235.667 546.312 235.393 546.52 235.159C546.729 234.924 546.982 234.733 547.265 234.596C547.548 234.46 547.855 234.38 548.168 234.362C548.482 234.343 548.796 234.387 549.092 234.49C549.389 234.594 549.662 234.754 549.897 234.963L592.492 272.88C592.855 273.202 593.111 273.627 593.226 274.098C593.341 274.569 593.31 275.064 593.137 275.518C592.965 275.971 592.658 276.361 592.259 276.635C591.859 276.91 591.386 277.057 590.901 277.057H590.901Z" fill="#7996D0"/>
<path d="M582.775 286.185C582.189 286.186 581.623 285.97 581.186 285.58L538.59 247.664C538.355 247.455 538.164 247.202 538.027 246.919C537.89 246.636 537.81 246.329 537.791 246.015C537.773 245.701 537.816 245.387 537.92 245.09C538.023 244.793 538.184 244.52 538.393 244.285C538.602 244.05 538.855 243.859 539.138 243.722C539.421 243.585 539.728 243.505 540.042 243.487C540.356 243.469 540.67 243.513 540.967 243.617C541.263 243.72 541.537 243.881 541.772 244.091L584.367 282.008C584.729 282.33 584.985 282.755 585.1 283.226C585.215 283.697 585.185 284.192 585.012 284.645C584.839 285.098 584.533 285.488 584.134 285.763C583.734 286.038 583.26 286.185 582.775 286.185H582.775Z" fill="#7996D0"/>
<path d="M534.064 232.198C533.518 231.218 533.192 230.131 533.112 229.011C533.031 227.892 533.197 226.769 533.597 225.721C533.997 224.673 534.623 223.725 535.429 222.945C536.235 222.164 537.202 221.57 538.263 221.204L538.309 193.93L550.128 201.753L548.272 226.453C548.769 228.276 548.58 230.217 547.741 231.91C546.902 233.602 545.471 234.928 543.72 235.636C541.969 236.345 540.018 236.386 538.239 235.752C536.459 235.118 534.974 233.854 534.064 232.198H534.064Z" fill="#9E616A"/>
<path d="M535.157 111.519L540.437 106.43L544.315 109.229C544.315 109.229 548.132 113.809 551.185 127.547C554.238 141.285 551.185 216.846 551.185 216.846L534.393 214.556L536.683 174.868L529.814 141.285L535.157 111.519Z" fill="#E6E6E6"/>
<path d="M542.953 107.671L525.164 99.174L513.087 87.9718L491.063 87.807L483.959 97.0427L465.203 103.414L468.329 168.087L466.198 173.06C466.198 173.06 467.683 174.401 468.361 175.151C469.04 175.902 467.424 182.182 467.424 182.182L466.513 189.015L469.04 190.821L465.755 194.701L464.939 200.818C464.939 200.818 522.282 186.565 533.117 210.176C533.69 211.424 532.28 199.232 532.28 199.232L530.87 190.307L532.269 182.296L534.4 180.164L530.826 176.59L533.117 159.629L542.953 107.671Z" fill="#3F3D56"/>
<path d="M139.537 251.046C139.978 249.925 140.169 248.721 140.094 247.518C140.02 246.316 139.683 245.144 139.107 244.086C138.531 243.028 137.73 242.109 136.761 241.394C135.791 240.679 134.677 240.185 133.496 239.947L129.544 210.93L118.086 220.946L123.596 246.965C123.328 248.976 123.807 251.015 124.942 252.696C126.077 254.377 127.789 255.583 129.754 256.086C131.719 256.589 133.8 256.354 135.603 255.425C137.406 254.496 138.806 252.938 139.537 251.046V251.046Z" fill="#FFB8B8"/>
<path d="M94.6481 122.501L91.5425 123.095L89.6653 125.459C89.6653 125.459 86.6285 137.37 90.0879 145.695C93.5474 154.019 118.56 237.694 118.56 237.694L136.525 238.215L122.53 170.373L94.6481 122.501Z" fill="#3F3D56"/>
<path d="M165.474 246.789C164.646 245.914 164.02 244.868 163.641 243.724C163.261 242.581 163.137 241.368 163.277 240.171C163.417 238.975 163.818 237.823 164.451 236.798C165.084 235.773 165.934 234.9 166.941 234.239L159.789 205.841L174.154 210.862L178.744 237.059C179.742 238.825 180.058 240.896 179.632 242.879C179.205 244.862 178.066 246.619 176.431 247.819C174.795 249.018 172.776 249.576 170.756 249.386C168.737 249.196 166.857 248.272 165.474 246.789Z" fill="#FFB8B8"/>
<path d="M159.197 110.776L162.3 110.17L164.923 111.663C164.923 111.663 172.182 121.584 172.076 130.598C171.97 139.612 179.96 226.579 179.96 226.579L163.484 233.761L151.175 165.592L159.197 110.776Z" fill="#3F3D56"/>
</g>
<defs>
<clipPath id="clip0_442_167">
<rect width="620" height="419.289" fill="white" transform="translate(0 0.355713)"/>
</clipPath>
</defs>
</svg>
