<svg width="58" height="58" viewBox="0 0 58 58" fill="none" xmlns="http://www.w3.org/2000/svg">
<path d="M47.8003 44.5499C50.3666 41.4621 52.1515 37.8017 53.004 33.8783C53.8565 29.9548 53.7515 25.8837 52.6978 22.0095C51.6442 18.1352 49.673 14.5717 46.9508 11.6204C44.2287 8.66904 40.8358 6.41677 37.0591 5.05406C33.2825 3.69135 29.2331 3.2583 25.2537 3.79154C21.2743 4.32478 17.4818 5.80862 14.1971 8.11754C10.9125 10.4265 8.23222 13.4925 6.38312 17.0564C4.53401 20.6202 3.57047 24.577 3.57398 28.592C3.57533 34.4287 5.63214 40.0784 9.3835 44.5499L9.34776 44.5802C9.47285 44.7303 9.61581 44.859 9.74447 45.0073C9.9053 45.1914 10.0786 45.3647 10.2448 45.5434C10.7452 46.0867 11.2598 46.6085 11.7995 47.0981C11.9639 47.2482 12.1337 47.3876 12.2999 47.5306C12.8717 48.0238 13.4596 48.492 14.069 48.928C14.1476 48.9816 14.2191 49.0513 14.2977 49.1067V49.0852C18.4831 52.0305 23.4759 53.6112 28.5937 53.6112C33.7114 53.6112 38.7043 52.0305 42.8896 49.0852V49.1067C42.9682 49.0513 43.0379 48.9816 43.1184 48.928C43.7259 48.4902 44.3156 48.0238 44.8875 47.5306C45.0537 47.3876 45.2234 47.2464 45.3878 47.0981C45.9275 46.6067 46.4422 46.0867 46.9425 45.5434C47.1087 45.3647 47.2803 45.1914 47.4429 45.0073C47.5698 44.859 47.7145 44.7303 47.8396 44.5784L47.8003 44.5499ZM28.5919 14.2961C30.1823 14.2961 31.7371 14.7677 33.0595 15.6513C34.3819 16.5349 35.4126 17.7908 36.0212 19.2602C36.6299 20.7296 36.7891 22.3464 36.4788 23.9063C36.1686 25.4662 35.4027 26.8991 34.2781 28.0237C33.1534 29.1483 31.7206 29.9142 30.1607 30.2245C28.6008 30.5348 26.9839 30.3755 25.5146 29.7669C24.0452 29.1582 22.7893 28.1275 21.9057 26.8051C21.022 25.4827 20.5504 23.928 20.5504 22.3375C20.5504 20.2048 21.3976 18.1594 22.9057 16.6514C24.4138 15.1433 26.4592 14.2961 28.5919 14.2961ZM14.3085 44.5499C14.3395 42.2035 15.293 39.9636 16.9628 38.3149C18.6326 36.6662 20.8843 35.7412 23.2309 35.74H33.9529C36.2994 35.7412 38.5512 36.6662 40.221 38.3149C41.8908 39.9636 42.8443 42.2035 42.8753 44.5499C38.9562 48.0815 33.8676 50.0361 28.5919 50.0361C23.3162 50.0361 18.2276 48.0815 14.3085 44.5499Z" fill="#7996D0"/>
</svg>
