<svg width="100" height="100" viewBox="0 0 100 100" fill="none" xmlns="http://www.w3.org/2000/svg">
<circle cx="50" cy="50" r="50" fill="#C4C4C4"/>
<path d="M75.7917 22C78.8507 22 81.3333 24.4795 81.3333 27.5417V37.1747C81.3336 38.766 80.8977 40.3271 80.0731 41.6881C79.2485 43.0492 78.0668 44.1583 76.6562 44.895L56.7062 55.3133C59.9069 56.8996 62.4772 59.5217 63.9994 62.7535C65.5215 65.9853 65.9061 69.6368 65.0905 73.1148C64.2749 76.5927 62.3072 79.6927 59.5071 81.9109C56.7069 84.1291 53.239 85.3353 49.6667 85.3333C46.0944 85.3353 42.6264 84.1291 39.8262 81.9109C37.0261 79.6927 35.0584 76.5927 34.2428 73.1148C33.4273 69.6368 33.8118 65.9853 35.334 62.7535C36.8561 59.5217 39.4264 56.8996 42.6272 55.3133L22.6772 44.895C21.2666 44.1583 20.0848 43.0492 19.2602 41.6881C18.4356 40.3271 17.9998 38.766 18 37.1747V27.5417C18 24.4795 20.4827 22 23.5417 22H75.7917ZM49.6667 58.4167C46.7272 58.4167 43.9081 59.5844 41.8296 61.6629C39.751 63.7414 38.5833 66.5605 38.5833 69.5C38.5833 72.4395 39.751 75.2586 41.8296 77.3371C43.9081 79.4156 46.7272 80.5833 49.6667 80.5833C52.6061 80.5833 55.4252 79.4156 57.5038 77.3371C59.5823 75.2586 60.75 72.4395 60.75 69.5C60.75 66.5605 59.5823 63.7414 57.5038 61.6629C55.4252 59.5844 52.6061 58.4167 49.6667 58.4167ZM62.3333 26.75H36.9905V47.0103L49.2993 53.4387C49.4127 53.498 49.5387 53.529 49.6667 53.529C49.7946 53.529 49.9207 53.498 50.034 53.4387L62.3333 47.0103V26.75Z" fill="#4F6CA6"/>
</svg>
