<svg width="66" height="74" viewBox="0 0 66 74" fill="rgb(6 78 59)" xmlns="http://www.w3.org/2000/svg">
<path d="M58.6667 0.333252H11C6.578 0.333252 0 3.26292 0 11.3333V62.6666C0 70.7369 6.578 73.6666 11 73.6666H66V66.3333H11.044C9.35 66.2893 7.33333 65.6219 7.33333 62.6666C7.33333 62.2963 7.36633 61.9663 7.42133 61.6656C7.832 59.5536 9.56267 59.0366 11.044 58.9999H66V7.66659C66 5.72166 65.2274 3.8564 63.8521 2.48114C62.4768 1.10587 60.6116 0.333252 58.6667 0.333252ZM58.6667 33.3333L51.3333 29.6666L44 33.3333V7.66659H58.6667V33.3333Z" fill="black" fill-opacity="0.8"/>
</svg>
