<svg width="104" height="104" viewBox="0 0 104 104" fill="rgb(136 19 55)" xmlns="http://www.w3.org/2000/svg">
<path d="M92.5417 21.3753L53.5417 8.37529C52.541 8.04124 51.459 8.04124 50.4583 8.37529L11.5566 21.3428L11.5359 21.3493L11.4587 21.3753C11.3876 21.3989 11.3198 21.4273 11.2507 21.4537C11.0675 21.5231 10.8887 21.6036 10.7152 21.6946C10.6673 21.7202 10.621 21.7486 10.5739 21.7759C10.493 21.8222 10.4134 21.8693 10.3358 21.9205C10.2911 21.9493 10.2481 21.9794 10.2046 22.0099C10.1247 22.0659 10.0468 22.1241 9.971 22.1845C9.93444 22.2138 9.89747 22.2422 9.86131 22.2723C9.77085 22.3487 9.68351 22.4282 9.59928 22.5108C9.581 22.5286 9.56191 22.5449 9.54403 22.5628C9.44328 22.6643 9.34714 22.7699 9.25559 22.8796C9.23 22.9105 9.20684 22.9434 9.18166 22.9747C9.11869 23.0543 9.05734 23.1352 8.99966 23.2184C8.96756 23.2639 8.93709 23.3107 8.90703 23.3578C8.85964 23.4309 8.81427 23.5055 8.77094 23.5816C8.74128 23.6332 8.71162 23.6844 8.684 23.7372C8.64094 23.8189 8.60194 23.903 8.56334 23.9875C8.54222 24.0342 8.51866 24.0797 8.49916 24.1272C8.44675 24.2524 8.40044 24.3803 8.359 24.5103C8.34194 24.5631 8.32812 24.618 8.31309 24.6716C8.28773 24.7596 8.26483 24.8484 8.24444 24.9377C8.211 25.0901 8.18484 25.2439 8.16603 25.3988C8.15953 25.4492 8.15222 25.4991 8.14775 25.5499C8.13394 25.6986 8.125 25.8485 8.125 26V58.5C8.125 59.793 8.63861 61.0329 9.55285 61.9472C10.4671 62.8614 11.7071 63.375 13 63.375C14.2929 63.375 15.5329 62.8614 16.4471 61.9472C17.3614 61.0329 17.875 59.793 17.875 58.5V32.7637L27.5092 35.9751C24.534 41.6714 23.6411 48.2277 24.9845 54.5121C26.328 60.7966 29.8235 66.4147 34.8676 70.3967C27.9619 73.6099 22.0989 78.7003 17.9481 85.0867C17.5984 85.6229 17.3578 86.2228 17.2399 86.8521C17.122 87.4814 17.1293 88.1277 17.2612 88.7542C17.3931 89.3807 17.6471 89.975 18.0088 90.5033C18.3704 91.0316 18.8325 91.4836 19.3688 91.8333C19.905 92.183 20.5049 92.4236 21.1342 92.5415C21.7635 92.6593 22.4098 92.6521 23.0363 92.5202C23.6628 92.3883 24.2571 92.1343 24.7855 91.7726C25.3138 91.411 25.7657 90.9489 26.1154 90.4126C28.9203 86.1029 32.7568 82.5617 37.277 80.1104C41.7972 77.6591 46.8579 76.3751 52 76.3751C57.1421 76.3751 62.2028 77.6591 66.723 80.1104C71.2432 82.5617 75.0797 86.1029 77.8846 90.4126C78.5909 91.4956 79.6984 92.2537 80.9636 92.5201C82.2288 92.7864 83.548 92.5393 84.631 91.8331C85.714 91.1268 86.4721 90.0192 86.7385 88.7541C87.0049 87.4889 86.7577 86.1697 86.0515 85.0867C81.9008 78.7004 76.038 73.61 69.1324 70.3967C74.1765 66.4147 77.672 60.7966 79.0155 54.5121C80.3589 48.2277 79.466 41.6714 76.4908 35.9751L92.5417 30.6248C93.5123 30.3012 94.3565 29.6804 94.9547 28.8504C95.553 28.0204 95.8749 27.0232 95.8749 26C95.8749 24.9769 95.553 23.9797 94.9547 23.1497C94.3565 22.3197 93.5123 21.6989 92.5417 21.3753ZM52 18.1391L75.584 26L67.1714 28.804L67.1584 28.8084L52 33.8614L36.8416 28.8084L36.8298 28.8044L28.4164 26L52 18.1391ZM69.875 48.75C69.8755 51.5264 69.2292 54.2647 67.9875 56.7478C66.7458 59.231 64.9427 61.3908 62.7211 63.056C60.4996 64.7212 57.9207 65.8461 55.1889 66.3414C52.4571 66.8367 49.6475 66.6888 46.9828 65.9096C44.3181 65.1303 41.8715 63.741 39.837 61.8518C37.8025 59.9627 36.236 57.6256 35.2618 55.0258C34.2875 52.426 33.9322 49.635 34.224 46.8741C34.5159 44.1131 35.4469 41.4581 36.9432 39.1195L50.4583 43.6248C51.459 43.9586 52.541 43.9586 53.5417 43.6248L67.0568 39.1195C68.8991 41.9935 69.8773 45.3362 69.875 48.75Z" fill="black" fill-opacity="0.8"/>
</svg>
