<svg width="97" height="77" viewBox="0 0 97 77" fill="rgb(112 26 117)" xmlns="http://www.w3.org/2000/svg">
<g opacity="1" clip-path="url(#clip0_43_27)">
<path d="M31.2809 52.9375C30.9214 52.9375 30.562 52.9901 30.2191 53.1014C28.2701 53.7346 26.2202 54.1406 24.0621 54.1406C21.904 54.1406 19.8542 53.7346 17.9036 53.1014C17.5607 52.9901 17.2028 52.9375 16.8434 52.9375C7.51014 52.9375 -0.0499963 60.5292 -0.000367399 69.8745C0.0206873 73.8237 3.26762 77 7.21838 77H40.9059C44.8566 77 48.1036 73.8237 48.1246 69.8745C48.1743 60.5292 40.6141 52.9375 31.2809 52.9375ZM24.0621 48.125C32.0358 48.125 38.4996 41.6612 38.4996 33.6875C38.4996 25.7138 32.0358 19.25 24.0621 19.25C16.0884 19.25 9.62463 25.7138 9.62463 33.6875C9.62463 41.6612 16.0884 48.125 24.0621 48.125ZM89.0309 0H31.2809C27.3 0 24.0621 3.34619 24.0621 7.45787V14.4375C27.5843 14.4375 30.8447 15.4571 33.6871 17.1145V9.625H86.6246V52.9375H76.9996V43.3125H57.7496V52.9375H46.2839C49.1563 55.4475 51.2648 58.7621 52.2529 62.5625H89.0309C93.0117 62.5625 96.2496 59.2163 96.2496 55.1046V7.45787C96.2496 3.34619 93.0117 0 89.0309 0Z" fill="black" fill-opacity="0.8"/>
</g>
<defs>
<clipPath id="clip0_43_27">
<rect width="96.25" height="77" fill="white"/>
</clipPath>
</defs>
</svg>
