<svg width="59" height="57" viewBox="0 0 59 57" fill="none" xmlns="http://www.w3.org/2000/svg">
<path d="M17.519 40.0367L28.1272 40.0016L51.2811 17.6804C52.1897 16.796 52.6897 15.6215 52.6897 14.372C52.6897 13.1226 52.1897 11.9481 51.2811 11.0636L47.4686 7.35281C45.6512 5.58396 42.4806 5.59332 40.6777 7.34579L17.519 29.6716V40.0367ZM44.0695 10.6612L47.8892 14.365L44.0503 18.0665L40.2378 14.358L44.0695 10.6612ZM22.3267 31.623L36.8219 17.6477L40.6344 21.3585L26.1416 35.3291L22.3267 35.3408V31.623Z" fill="#407F84"/>
<path d="M12.7115 49.3654H46.3653C49.0168 49.3654 51.173 47.2666 51.173 44.6859V24.405L46.3653 29.0845V44.6859H20.3028C20.2403 44.6859 20.1754 44.7093 20.1129 44.7093C20.0336 44.7093 19.9543 44.6882 19.8726 44.6859H12.7115V11.9295H29.1706L33.9783 7.25H12.7115C10.0601 7.25 7.90381 9.34875 7.90381 11.9295V44.6859C7.90381 47.2666 10.0601 49.3654 12.7115 49.3654Z" fill="#407F84"/>
</svg>
