<svg width="247" height="240" viewBox="0 0 247 240" fill="none" xmlns="http://www.w3.org/2000/svg">
<path d="M206.47 186.976C217.555 174.016 225.265 158.654 228.947 142.187C232.629 125.72 232.176 108.634 227.624 92.3737C223.073 76.1134 214.559 61.1573 202.801 48.7706C191.043 36.384 176.387 26.9312 160.074 21.212C143.762 15.4927 126.271 13.6752 109.082 15.9132C91.8933 18.1512 75.5121 24.3788 61.3243 34.0694C47.1364 43.7599 35.5593 56.6281 27.5723 71.5856C19.5853 86.5431 15.4233 103.15 15.4385 120.001C15.4443 144.497 24.3285 168.209 40.5322 186.976L40.3778 187.103C40.9181 187.733 41.5356 188.273 42.0914 188.896C42.786 189.668 43.5348 190.396 44.2526 191.146C46.4139 193.426 48.6369 195.616 50.9679 197.671C51.678 198.301 52.4113 198.886 53.1292 199.486C55.5992 201.556 58.1386 203.521 60.7707 205.351C61.1104 205.576 61.4191 205.868 61.7587 206.101V206.011C79.8368 218.372 101.403 225.006 123.509 225.006C145.614 225.006 167.181 218.372 185.259 206.011V206.101C185.598 205.868 185.899 205.576 186.247 205.351C188.871 203.513 191.418 201.556 193.888 199.486C194.606 198.886 195.339 198.293 196.05 197.671C198.381 195.608 200.604 193.426 202.765 191.146C203.483 190.396 204.224 189.668 204.926 188.896C205.474 188.273 206.099 187.733 206.64 187.096L206.47 186.976ZM123.501 60.0006C130.371 60.0006 137.086 61.98 142.798 65.6885C148.51 69.397 152.962 74.668 155.591 80.835C158.22 87.002 158.908 93.788 157.568 100.335C156.228 106.882 152.92 112.895 148.062 117.615C143.204 122.335 137.015 125.55 130.277 126.852C123.54 128.154 116.556 127.486 110.209 124.931C103.862 122.377 98.4371 118.051 94.6204 112.501C90.8038 106.951 88.7666 100.426 88.7666 93.7506C88.7666 84.7995 92.4261 76.2151 98.9401 69.8857C105.454 63.5564 114.289 60.0006 123.501 60.0006ZM61.805 186.976C61.9389 177.128 66.0577 167.727 73.2702 160.808C80.4826 153.888 90.2089 150.006 100.345 150.001H146.657C156.793 150.006 166.519 153.888 173.732 160.808C180.944 167.727 185.063 177.128 185.197 186.976C168.269 201.798 146.289 210.001 123.501 210.001C100.713 210.001 78.7335 201.798 61.805 186.976Z" fill="#7996D0"/>
</svg>
